<?xml version="1.0" encoding="utf-8"?>
<svg version="1.1" id="Layer_2" x="0px" y="0px" width="435px" height="435px" viewBox="0 0 435 435" enable-background="new 0 0 435 435" xmlns="http://www.w3.org/2000/svg">
  <path d="M 427.206 211.416 C 423.616 209.317 420.178 206.96 416.9 204.401 C 410.253 199.212 404.236 193.195 399.023 186.568 C 393.957 180.127 389.528 173.032 386.562 165.37 C 383.622 157.778 382.435 149.578 382.209 141.472 C 381.767 125.637 384.907 109.316 391.898 95.057 C 392.729 94.143 393.017 92.873 392.708 91.703 C 391.93 87.925 388.022 88.971 385.316 89.29 C 380.718 89.833 376.076 89.998 371.449 89.845 C 362.505 89.546 353.58 88.074 345.005 85.514 C 337.177 83.181 329.481 79.937 322.702 75.337 C 316.298 70.991 310.855 65.294 306.16 59.176 C 299.871 50.983 294.819 41.794 291.22 32.115 C 289.386 27.183 287.934 22.102 286.975 16.926 C 286.644 15.146 286.554 13.27 284.795 12.297 C 283.363 11.51 281.674 11.797 280.495 12.891 L 280.495 12.89 C 268.431 24.964 252.572 33.608 236.128 37.999 C 228.461 40.045 220.517 41.138 212.583 40.465 C 203.984 39.736 195.517 37.41 187.525 34.205 C 179.654 31.048 172.134 26.962 165.258 21.993 C 161.855 19.534 158.609 16.853 155.585 13.938 C 154.679 13.064 153.859 12.076 152.536 11.875 C 151.14 11.655 149.665 12.32 148.911 13.515 C 148.196 14.639 148.189 16.172 147.946 17.438 C 147.517 19.668 146.998 21.881 146.396 24.071 C 145.229 28.321 143.758 32.486 142.031 36.539 C 138.604 44.586 134.181 52.236 128.855 59.175 C 124.334 65.066 119.121 70.565 113.023 74.844 C 106.665 79.306 99.427 82.508 92.054 84.878 C 83.892 87.503 75.39 89.114 66.837 89.679 C 62.423 89.971 57.988 89.976 53.576 89.656 C 51.361 89.495 49.151 89.251 46.956 88.917 C 45.195 88.649 43.484 89.074 42.623 90.792 C 41.289 92.121 41.377 93.87 42.172 95.437 C 43.149 97.363 44.047 99.329 44.872 101.325 C 46.477 105.207 47.807 109.201 48.886 113.26 C 51.011 121.255 52.194 129.516 52.388 137.786 C 52.583 146.115 51.85 154.617 49.427 162.618 C 47.13 170.201 43.211 177.272 38.665 183.728 C 30.033 195.986 18.618 206.619 5.453 213.856 L 5.146 213.856 C 3.221 213.856 1.679 215.385 1.551 217.245 C 1.542 217.373 1.54 217.504 1.545 217.635 C 1.512 217.852 1.498 218.06 1.501 218.26 C 1.55 221.305 5.604 222.455 7.814 223.744 C 11.407 225.838 14.848 228.192 18.128 230.748 C 24.78 235.931 30.803 241.942 36.023 248.564 C 41.095 254.999 45.531 262.089 48.505 269.75 C 51.463 277.367 52.657 285.6 52.886 293.737 C 53.324 309.353 50.274 325.428 43.494 339.543 C 42.191 340.624 41.822 342.445 42.567 343.93 C 43.903 347.671 48.684 345.924 51.516 345.643 C 56.132 345.186 60.784 345.1 65.415 345.329 C 74.33 345.771 83.204 347.365 91.717 350.045 C 99.39 352.461 106.939 355.772 113.514 360.454 C 119.883 364.991 125.291 370.843 129.945 377.094 C 139.086 389.375 145.747 403.903 148.384 419.023 C 148.196 420.539 148.995 422.013 150.375 422.694 C 151.552 423.348 153.021 423.336 154.152 422.585 C 154.225 422.585 154.68 422.161 154.719 422.121 L 154.719 422.12 C 162.908 413.909 172.821 407.423 183.357 402.635 C 194.029 397.783 205.873 394.27 217.681 394.27 L 217.694 394.27 L 217.732 394.27 C 229.212 394.257 240.726 397.575 251.155 402.18 C 261.689 406.829 271.602 413.186 279.877 421.222 C 280.611 422.547 282.112 423.269 283.618 423.022 C 284.965 422.88 286.146 421.979 286.63 420.713 C 286.63 420.711 286.63 420.711 286.63 420.71 C 286.681 420.574 286.817 420.15 286.817 420.004 L 286.816 420.002 C 289.525 402.854 297.483 386.248 308.523 372.907 C 313.369 367.052 318.94 361.78 325.459 357.826 C 332.636 353.471 340.599 350.422 348.703 348.309 C 356.023 346.401 363.556 345.263 371.115 344.97 C 374.982 344.819 378.86 344.892 382.716 345.218 C 384.728 345.389 386.734 345.629 388.729 345.946 C 390.191 346.177 391.676 345.461 392.417 344.18 C 393.797 342.628 393.319 340.908 392.493 339.249 C 391.532 337.317 390.648 335.35 389.837 333.351 C 388.261 329.467 386.958 325.472 385.902 321.416 C 383.827 313.434 382.687 305.193 382.533 296.948 C 382.378 288.601 383.153 280.074 385.659 272.079 C 388.037 264.491 392.013 257.426 396.615 250.975 C 405.316 238.784 416.777 228.218 429.979 221.078 C 431.906 221.016 433.481 219.397 433.481 217.468 C 433.496 217.317 433.501 217.166 433.5 217.015 C 433.503 213.792 429.468 212.738 427.206 211.416 Z M 280.71 34.384 C 280.71 34.384 282.595 29.513 284.189 33.878 C 287.312 42.437 291.464 50.632 296.548 58.186 C 302.15 66.506 308.905 74.287 317.053 80.207 C 325.095 86.032 334.448 90.004 343.95 92.74 C 352.91 95.32 362.196 97.071 371.522 97.071 C 375.176 97.071 372.659 100.198 372.659 100.198 L 345.065 120.261 C 336.712 121.449 327.97 119.657 319.97 117.314 C 312.256 115.056 303.924 112.121 297.368 107.351 C 291.058 102.796 285.892 96.135 281.466 89.814 C 276.633 82.913 272.104 75.135 270.421 66.784 C 270.393 66.64 270.366 66.497 270.338 66.354 L 280.71 34.384 Z M 338.822 298.32 C 339.315 301.621 336.992 299.872 336.992 299.872 L 318.602 286.502 C 316.182 281.663 315.774 275.489 315.579 270.182 C 315.346 263.836 315.823 257.337 317.558 251.209 C 319.266 245.178 322.379 239.572 325.987 234.478 C 329.476 229.552 333.636 224.445 338.727 221.091 L 361.105 221.091 C 361.105 221.091 363.983 221.769 361.903 223.849 C 357.734 228.02 353.993 232.629 350.624 237.457 C 346.451 243.436 342.363 249.969 340.11 256.948 C 337.941 263.718 337.425 271.14 337.288 278.206 C 337.155 284.926 337.55 291.707 338.822 298.32 Z M 97.018 296.788 C 99.449 287.517 98.462 277.511 97.268 268.053 C 96.732 263.847 95.979 259.617 94.414 255.66 C 92.716 251.371 90.428 247.306 87.983 243.403 C 83.784 236.701 78.905 230.262 73.231 224.695 C 70.759 222.224 74.846 221.09 74.846 221.09 L 95.188 221.09 C 95.189 221.09 95.189 221.09 95.19 221.091 C 99.893 223.43 103.808 228.214 107.004 232.253 C 111.001 237.305 114.501 242.915 116.736 248.977 C 118.889 254.816 119.674 261.135 119.759 267.332 C 119.842 273.416 119.505 280.1 117.315 285.847 L 99.784 298.592 C 99.784 298.592 95.822 301.35 97.018 296.788 Z M 96.365 138.155 C 96.365 134.832 100.112 136.589 100.112 136.589 L 116.258 148.329 C 118.39 153.414 119.123 158.907 119.367 164.394 C 119.654 170.88 119.199 177.537 117.437 183.807 C 115.738 189.854 112.623 195.475 109.015 200.581 C 105.561 205.468 101.466 210.471 96.468 213.855 L 75.327 213.855 C 75.327 213.855 70.531 213.82 73.844 210.507 C 77.887 206.464 81.421 201.911 84.661 197.213 C 88.709 191.344 92.67 184.952 94.867 178.125 C 97.076 171.216 97.569 163.622 97.676 156.414 C 97.766 150.313 97.414 144.173 96.365 138.155 Z M 308.876 277.114 C 309.386 279.741 306.981 278.055 306.981 278.055 L 296.452 270.397 C 292.255 262.093 292.455 251.188 295.254 242.502 C 297.977 234.041 303.803 225.691 311.525 221.089 L 324.033 221.089 C 324.033 221.089 327.404 221.627 324.88 224.151 C 318.454 230.575 313.866 239.009 311.091 247.604 C 308.088 256.958 307.609 267.343 308.876 277.114 Z M 126.699 275.478 C 127.607 266.347 126.929 256.791 124.093 248.116 C 121.304 239.649 116.339 231.704 110.385 224.958 C 107.107 221.68 111.857 221.09 111.857 221.09 L 122.571 221.09 C 130.245 225.04 136.14 233.089 139.208 240.99 C 142.669 249.906 143.139 260.97 139.302 269.862 L 129.336 277.108 C 129.335 277.108 126.292 279.559 126.699 275.478 Z M 126.379 160.505 C 126.379 155.93 129.545 157.989 129.545 157.989 L 138.432 164.45 C 142.666 172.592 142.523 183.401 139.904 191.996 C 137.273 200.625 131.431 209.118 123.643 213.855 L 112.46 213.855 C 112.46 213.855 107.352 213.632 110.484 210.5 C 116.905 204.079 121.399 195.56 124.052 186.942 C 126.638 178.54 127.244 169.338 126.379 160.505 Z M 286.001 176.406 C 286.001 182.467 286.385 188.586 288.267 194.343 C 290.332 200.656 293.477 206.793 298.175 211.492 C 300.381 213.7 296.728 213.856 296.728 213.856 L 284.503 213.856 C 279.122 210.949 276.124 205.677 274.17 200.074 C 272.047 193.988 270.792 187.314 273.534 181.21 L 282.87 174.422 C 282.871 174.422 286.001 172.687 286.001 176.406 Z M 286.308 259.932 C 286.872 263.466 284.197 261.488 284.197 261.488 L 273.936 254.027 C 271.048 248.139 271.968 241.66 273.912 235.633 C 275.767 229.866 278.608 224.253 284.01 221.09 L 296.909 221.09 C 296.909 221.09 300.239 221.135 297.804 223.571 C 288.465 232.909 284.204 246.779 286.308 259.932 Z M 264.853 247.423 L 234.019 225.004 C 232.984 223.229 232.533 222.114 235.245 221.089 L 273.222 221.089 C 270.457 224.611 268.591 228.684 267.19 232.92 C 265.646 237.576 264.573 242.491 264.853 247.423 Z M 170.26 243.858 C 170.26 240.385 169.161 236.986 168.08 233.688 C 167.226 231.085 166.205 228.544 164.916 226.149 C 162.128 221.392 168.036 221.09 168.036 221.09 L 201.157 221.09 C 202.875 221.603 203.315 222.971 202.034 224.253 L 173.482 245.011 C 173.483 245.01 170.26 247.733 170.26 243.858 Z M 149.029 259.032 C 149.934 252.898 148.706 246.569 146.776 240.678 C 144.98 235.214 142.163 230.079 138.57 225.578 C 135.054 222.063 139.103 221.09 139.103 221.09 L 150.398 221.09 C 155.847 223.978 158.889 229.282 160.865 234.931 C 162.978 240.969 164.245 247.592 161.576 253.668 L 152.476 260.284 C 152.476 260.284 148.535 262.38 149.029 259.032 Z M 138.131 210.346 C 145.971 200.594 149.788 188.1 148.698 175.617 C 148.698 172.084 152.657 174.793 152.657 174.793 L 160.986 180.85 C 163.945 186.766 163.039 193.296 161.089 199.373 C 159.254 205.091 156.45 210.681 151.124 213.856 L 140.066 213.856 C 140.066 213.856 135.204 213.274 138.131 210.346 Z M 170.111 191.206 C 170.111 187.876 172.647 189.326 172.647 189.326 L 202.93 211.344 C 204.28 212.693 204.141 213.162 201.519 213.856 L 167.793 213.856 C 167.793 213.856 162.007 214.278 164.315 210.138 C 165.741 207.582 166.891 204.873 167.813 202.077 C 168.974 198.565 169.865 194.907 170.111 191.206 Z M 264.867 191.986 C 264.867 195.172 265.963 198.276 266.955 201.309 C 268.431 205.823 270.41 210.152 273.412 213.856 L 233.799 213.856 C 232.352 213.193 231.532 212.231 233.306 210.46 L 260.985 190.336 C 260.984 190.336 264.867 187.153 264.867 191.986 Z M 230.044 167.116 L 219.081 200.904 C 217.763 202.222 217.363 202.207 215.877 200.722 L 205.197 167.809 C 205.197 167.809 203.598 162.681 207.703 164.464 C 210.716 165.773 214.207 165.452 217.509 165.453 C 221.197 165.452 224.878 165.129 228.427 164.187 C 231.205 163.043 230.044 167.116 230.044 167.116 Z M 215.964 233.953 C 217.269 232.65 217.251 232.481 219.211 234.44 L 231.277 271.631 C 226.9 270.018 222.278 269.494 217.63 269.493 L 217.563 269.493 C 212.841 269.498 208.146 270.037 203.713 271.713 L 215.964 233.953 Z M 257.191 184.152 L 228.878 204.735 C 226.654 205.598 226.28 204.229 226.28 202.156 L 237.189 168.531 C 237.189 168.531 237.293 165.394 240.398 168.5 C 242.824 170.926 245.274 173.35 248.046 175.36 C 250.887 177.421 253.91 179.259 257.158 180.573 C 260.5 181.367 257.191 184.152 257.191 184.152 Z M 238.198 141.984 L 234.666 152.869 C 229.978 157.189 223.674 158.22 217.51 158.22 C 211.344 158.22 205.038 157.189 200.352 152.868 L 197.094 142.826 C 197.094 142.826 195.522 137.604 199.845 139.639 C 211.2 144.057 223.885 144.041 235.237 139.612 C 238.681 138.328 238.198 141.984 238.198 141.984 Z M 194.532 168.567 C 196.487 164.852 198.01 169.09 198.01 169.09 L 209.025 203.04 C 209.025 205.509 207.954 204.866 206.32 204.866 L 177.285 183.757 C 177.285 183.757 174.667 181.729 177.848 180.58 C 181.317 179.327 184.439 177.236 187.408 175.043 C 190.003 173.125 192.442 171.004 194.532 168.567 Z M 178.757 250.117 L 206.701 229.8 C 208.481 229.8 208.749 230.339 208.749 232.751 L 197.948 266.043 C 197.948 266.043 196.817 269.522 194.652 266.447 C 192.682 263.65 189.779 261.618 187.011 259.616 C 184.26 257.625 181.34 255.844 178.212 254.543 C 174.756 253.791 178.757 250.117 178.757 250.117 Z M 196.811 292.992 L 200.316 282.186 C 205.009 277.79 211.355 276.731 217.568 276.727 L 217.58 276.727 L 217.631 276.727 C 223.727 276.725 229.97 277.739 234.634 281.973 L 238.303 293.285 C 238.303 293.285 239.527 297.1 236.244 295.687 C 230.358 293.241 223.997 291.918 217.621 291.916 L 217.584 291.916 C 211.318 291.926 205.056 293.208 199.255 295.586 C 195.161 297.22 196.811 292.992 196.811 292.992 Z M 238.183 269.479 L 226.457 233.333 C 226.457 231.277 227.163 230.718 229.576 230.718 L 260.503 253.203 C 255.802 254.496 251.551 256.992 247.654 259.874 C 244.005 262.575 240.687 265.673 238.183 269.479 Z M 278.919 168.354 L 269.439 175.246 C 262.881 176.058 256.959 172.965 251.84 169.173 C 247.028 165.608 242.768 161.157 241.545 155.101 L 245.717 142.24 C 245.717 142.24 246.757 139.172 248.411 143.328 C 253.213 155.391 265.882 162.411 278.753 165.185 C 281.839 165.185 278.919 168.354 278.919 168.354 Z M 246.75 115.623 L 243.195 126.578 C 236.487 132.75 226.493 135.801 217.508 135.797 C 208.521 135.801 198.528 132.749 191.82 126.577 L 188.493 116.323 C 188.493 116.323 187.685 111.687 191.621 113.511 C 199.661 117.238 208.723 119.155 217.509 119.161 C 226.734 119.148 236.129 116.742 244.614 112.986 C 248.326 111.686 246.75 115.623 246.75 115.623 Z M 157.375 164.877 C 169.183 161.82 179.476 154.373 186.09 144.132 C 187.565 140.379 190.009 144.433 190.009 144.433 L 193.471 155.101 C 192.254 161.159 187.989 165.611 183.177 169.174 C 178.057 172.966 172.137 176.057 165.577 175.245 L 156.204 168.43 C 156.204 168.43 152.121 165.574 157.375 164.877 Z M 169.977 151.048 C 162.593 156.553 152.42 160.115 143.144 158.935 L 134.16 152.402 C 134.16 152.402 130.421 148.804 134.185 148.804 C 143.636 148.804 152.656 143.191 160.194 137.59 C 167.375 132.255 173.366 125.046 177.927 117.284 C 179.126 114.337 181.397 117.884 181.397 117.884 L 184.942 128.812 C 183.166 137.582 177.052 145.772 169.977 151.048 Z M 133.897 282.735 L 143.008 276.111 C 152.156 274.834 162.271 278.317 169.629 283.642 C 176.875 288.883 183.098 297.12 184.995 305.974 L 181.62 316.375 C 181.62 316.375 179.609 322.536 178.117 317.858 C 175.316 309.076 167.298 302.499 159.874 297.119 C 152.488 291.786 143.555 288.212 134.572 286.285 C 130.452 285.618 133.897 282.735 133.897 282.735 Z M 186.33 291.093 C 179.506 280.399 168.74 272.786 156.459 269.895 C 152.693 268.89 156.129 266.57 156.129 266.57 L 165.482 259.771 C 171.892 258.92 177.714 261.813 182.772 265.477 C 187.728 269.059 192.21 273.552 193.505 279.739 L 189.878 290.92 C 189.878 290.92 187.927 294.327 186.33 291.093 Z M 188.045 320.005 L 191.768 308.531 C 198.445 302.243 208.566 299.155 217.592 299.148 L 217.616 299.148 L 217.62 299.148 C 226.555 299.143 236.414 302.157 243.144 308.21 L 246.912 319.822 C 246.912 319.822 248.686 324.467 244.461 321.824 C 236.054 318.148 226.773 315.792 217.651 315.786 L 217.607 315.786 C 208.141 315.807 198.485 318.349 189.829 322.289 C 185.997 323.864 188.045 320.005 188.045 320.005 Z M 248.399 291.74 C 247.725 292.841 245.281 291.359 245.281 291.359 L 241.582 279.951 C 242.763 273.833 247.043 269.335 251.891 265.739 C 256.968 261.972 262.837 258.884 269.348 259.633 L 279.687 267.15 C 279.687 267.15 282.082 269.73 278.854 269.73 C 266.193 272.694 255.18 280.66 248.399 291.74 Z M 265.108 283.851 C 272.457 278.362 282.506 274.839 291.744 275.917 L 301.617 283.095 C 301.617 283.095 304.866 285.255 301.46 285.939 C 292.027 287.833 282.583 291.584 274.903 297.301 C 267.547 302.778 261.424 310.235 256.831 318.235 C 254.956 322.297 253.944 318.053 253.944 318.053 L 250.129 306.297 C 251.815 297.454 258.003 289.159 265.108 283.851 Z M 324.034 213.856 L 312.269 213.856 C 304.549 209.755 298.648 201.617 295.652 193.558 C 292.362 184.707 291.964 173.728 295.855 164.982 L 305.489 157.978 C 305.489 157.978 308.844 157.377 308.31 160.256 C 306.677 169.062 308.202 178.474 310.957 186.927 C 313.907 195.913 319.01 204.589 325.731 211.313 C 328.218 213.8 324.034 213.856 324.034 213.856 Z M 296.753 140.242 C 290.67 138.376 284.643 135.785 279.473 132.03 C 274.514 128.446 270.335 123.765 266.771 118.821 C 263.368 114.1 259.845 108.628 258.485 102.894 L 265.535 81.16 C 265.535 81.16 266.683 77.981 267.752 80.828 C 270.891 87.341 274.901 93.435 279.369 99.111 C 283.622 104.517 288.384 110.07 294.149 113.918 C 299.843 117.72 306.381 120.402 312.831 122.626 C 318.467 124.57 324.261 126.333 330.194 127.042 C 334.613 127.57 331.409 130.192 331.409 130.192 L 313.934 142.896 C 308.266 143.492 302.127 141.89 296.753 140.242 Z M 257.261 117.569 C 261.151 125.752 267.946 132.599 275.226 137.885 C 282.726 143.313 291.781 146.879 300.886 148.815 C 304.382 148.815 301.371 152.029 301.371 152.029 L 291.872 158.935 C 282.761 160.093 272.783 156.667 265.458 151.352 C 258.178 146.077 251.886 137.74 250.075 128.808 L 253.624 117.87 C 253.624 117.871 255.439 113.735 257.261 117.569 Z M 257.6 82.18 L 251.603 100.663 C 247.354 104.313 241.65 106.597 236.414 108.397 C 230.365 110.477 223.932 111.932 217.51 111.926 C 211.391 111.935 205.261 110.6 199.473 108.69 C 193.945 106.866 187.883 104.503 183.414 100.66 L 177.174 81.427 C 177.174 81.427 176.475 76.724 179.837 78.326 C 184.989 80.781 190.284 82.967 195.735 84.64 C 202.704 86.779 210.174 88.666 217.509 88.674 C 224.509 88.664 231.613 86.925 238.287 84.942 C 243.71 83.33 248.999 81.216 254.151 78.847 C 259.295 76.484 257.6 82.18 257.6 82.18 Z M 170.043 82.892 L 176.533 102.897 C 175.238 108.346 171.96 113.543 168.778 118.074 C 165.102 123.309 160.749 128.262 155.546 132.029 C 150.561 135.653 144.768 138.188 138.913 140.038 C 133.361 141.793 126.975 143.509 121.096 142.905 L 105.094 131.271 C 105.094 131.271 101.247 127.841 105.725 126.88 C 111.335 125.676 116.965 124.437 122.371 122.562 C 129.109 120.225 136.082 117.411 141.895 113.206 C 147.494 109.135 152.177 103.63 156.38 98.176 C 160.133 93.305 163.563 88.128 166.362 82.639 C 168.277 79.015 170.043 82.892 170.043 82.892 Z M 103.782 304.63 L 120.922 292.168 C 126.461 291.464 132.576 293.064 137.841 294.635 C 143.958 296.455 150.009 299.007 155.243 302.701 C 160.236 306.226 164.446 310.851 168.047 315.761 C 171.555 320.545 175.104 326.055 176.595 331.864 L 170.159 351.699 C 170.159 351.699 168.397 355.81 166.352 352.068 C 163.26 346.41 159.758 340.956 155.771 335.897 C 151.511 330.497 146.743 324.952 140.976 321.109 C 135.285 317.315 128.75 314.642 122.307 312.426 C 116.421 310.401 110.336 308.784 104.159 307.911 C 99.891 307.912 103.782 304.63 103.782 304.63 Z M 176.997 354.058 L 183.352 334.472 C 187.567 330.701 193.439 328.387 198.712 326.568 C 204.759 324.484 211.19 323.022 217.612 323.02 L 217.633 323.02 L 217.651 323.02 C 223.764 323.011 229.889 324.341 235.674 326.246 C 241.152 328.049 247.06 330.375 251.542 334.1 L 258.325 355.006 C 258.325 355.006 259.777 358.944 256.068 356.971 C 250.791 354.162 245.158 352.041 239.442 350.292 C 232.471 348.157 224.999 346.276 217.666 346.272 L 217.638 346.272 C 210.638 346.289 203.534 348.034 196.863 350.024 C 190.575 351.899 184.375 354.272 178.577 357.375 C 174.907 359.307 176.997 354.058 176.997 354.058 Z M 265.191 352.725 L 258.545 332.234 C 259.709 326.873 262.961 321.717 266.035 317.26 C 269.677 311.982 274.002 306.992 279.162 303.147 C 284.111 299.459 289.875 296.875 295.722 294.977 C 301.359 293.147 307.786 291.418 313.771 291.931 L 331.276 304.657 C 331.276 304.657 334.162 306.956 330.696 307.753 C 324.505 309.177 318.218 310.357 312.24 312.468 C 305.572 314.822 298.605 317.638 292.907 321.905 C 287.331 326.08 282.647 331.605 278.445 337.119 C 274.694 342.04 271.27 347.273 268.503 352.821 C 266.288 357.257 265.191 352.725 265.191 352.725 Z M 361.286 213.856 L 339.616 213.856 C 334.87 211.317 330.959 206.572 327.706 202.393 C 323.759 197.32 320.301 191.687 318.147 185.606 C 316.078 179.757 315.347 173.443 315.306 167.264 C 315.266 161.258 315.619 154.625 317.862 148.981 L 335.581 136.099 C 335.581 136.099 338.592 134.44 338.039 138.494 C 336.752 147.936 336.627 157.67 337.809 167.068 C 338.34 171.258 339.089 175.47 340.645 179.413 C 342.338 183.705 344.622 187.772 347.065 191.678 C 351.441 198.679 356.681 205.26 362.545 211.122 C 365.619 214.195 361.286 213.856 361.286 213.856 Z M 166.819 31.738 C 173.593 35.269 180.174 39.21 187.326 41.88 C 196.937 45.467 207.206 47.902 217.51 47.912 C 227.813 47.903 238.082 45.467 247.694 41.88 C 256.087 38.747 263.838 34.161 271.527 29.555 C 275.421 27.223 273.731 32.461 273.731 32.461 L 263.453 64.142 C 257.323 69.934 249.187 73.581 241.324 76.355 C 233.76 79.024 225.288 81.548 217.192 81.439 C 209.323 81.334 201.213 78.992 193.84 76.406 C 186.045 73.672 178.01 70.073 171.871 64.414 C 171.767 64.316 171.662 64.22 171.558 64.122 L 162.511 36.235 C 162.511 36.235 160.379 28.381 166.819 31.738 Z M 67.441 96.886 C 75.803 96.886 84.072 94.832 92.081 92.444 C 99.348 90.272 106.446 87.37 112.972 83.483 C 119.043 79.868 124.411 75.267 129.175 70.061 C 137.685 60.76 144.688 49.846 149.243 38.039 C 152.061 30.734 155.667 38.58 155.667 38.58 L 164.674 66.342 C 163.134 74.585 158.754 82.255 154.056 89.088 C 149.525 95.68 144.189 102.622 137.651 107.351 C 131.221 112.028 123.078 114.921 115.525 117.173 C 107.387 119.6 98.465 121.474 89.953 120.262 L 67.409 103.871 C 67.407 103.87 60.017 96.886 67.441 96.886 Z M 25.035 209.118 C 29.762 205.298 33.999 200.947 37.863 196.48 C 48.468 184.197 56.475 169.818 58.749 153.603 C 60.662 139.959 59.441 125.776 56.135 112.31 C 53.688 102.343 61.06 108.197 61.06 108.197 L 84.96 125.574 C 85.475 127.198 86.4 128.72 86.973 130.34 C 87.703 132.406 88.273 134.53 88.73 136.673 C 89.66 141.025 90.142 145.471 90.346 149.914 C 90.726 158.153 90.48 166.94 88.271 174.938 C 86.253 182.249 81.622 189.146 77.213 195.218 C 72.233 202.078 66.377 208.826 59.147 213.39 C 58.896 213.549 58.641 213.704 58.385 213.857 L 26.924 213.857 C 26.924 213.856 18.425 214.46 25.035 209.118 Z M 57.011 322.886 C 60.917 309.631 61.172 295.268 59.063 281.684 C 56.591 265.762 48.517 251.653 38.004 239.636 C 34.184 235.276 29.937 231.117 25.352 227.305 C 18.787 222.958 26.563 221.089 26.563 221.089 L 56.541 221.089 C 59.859 223.072 62.952 225.073 65.84 227.678 C 69.065 230.584 71.996 233.811 74.712 237.195 C 79.927 243.691 84.929 250.996 87.885 258.833 C 89.16 262.212 89.718 265.87 90.15 269.438 C 90.686 273.878 90.907 278.36 90.862 282.832 C 90.777 291.362 89.924 300.427 86.424 308.307 L 62.082 326.004 C 62.082 326.004 54.592 331.097 57.011 322.886 Z M 149.888 398.157 C 146.943 390.478 142.967 383.201 138.34 376.412 C 132.788 368.263 126.118 360.651 118.104 354.842 C 109.928 348.934 100.403 344.931 90.733 342.203 C 83.369 340.126 75.811 338.256 68.159 338.256 C 59.656 338.256 66.037 332.073 66.037 332.073 L 89.722 314.853 C 97.997 313.57 106.724 315.322 114.673 317.599 C 122.55 319.854 131.071 322.82 137.761 327.678 C 144.075 332.226 149.248 338.882 153.681 345.199 C 158.539 352.121 163.096 359.93 164.769 368.316 L 155.317 397.448 C 155.316 397.448 152.604 405.239 149.888 398.157 Z M 268.129 402.996 C 261.567 399.312 254.952 395.676 247.907 393.051 C 238.299 389.472 228.035 387.044 217.737 387.036 L 217.677 387.036 C 207.374 387.056 197.108 389.501 187.499 393.098 C 180.091 395.871 172.919 399.361 166.303 403.705 C 159.836 407.951 162.119 399.914 162.119 399.914 L 171.473 371.084 C 177.485 365.26 185.563 361.588 193.347 358.789 C 200.97 356.048 209.473 353.507 217.644 353.507 L 217.666 353.507 C 225.45 353.492 233.541 355.838 240.839 358.351 C 248.83 361.103 257.098 364.749 263.37 370.555 L 272.913 399.971 C 272.914 399.97 275.028 406.866 268.129 402.996 Z M 368.202 337.885 C 359.688 337.885 351.266 339.926 343.108 342.364 C 335.681 344.588 328.426 347.575 321.784 351.596 C 315.736 355.258 310.397 359.917 305.664 365.156 C 297.259 374.46 290.137 385.258 285.853 397.091 C 283.165 404.515 279.62 397.195 279.62 397.195 L 270.43 368.871 C 271.887 360.515 276.35 352.707 281.09 345.798 C 285.614 339.201 290.945 332.252 297.479 327.518 C 303.768 322.928 311.711 320.076 319.093 317.826 C 327.294 315.325 336.245 313.409 344.846 314.524 L 369.964 332.787 C 369.963 332.787 374.667 337.885 368.202 337.885 Z M 411.894 224.466 C 406.642 228.96 401.527 233.584 397.133 238.653 C 386.503 250.938 378.479 265.323 376.195 281.555 C 374.239 295.474 375.439 309.977 378.998 323.656 C 381.357 332.724 373.284 326.259 373.284 326.259 L 349.85 309.222 C 349.813 309.132 349.789 309.038 349.744 308.95 L 349.744 308.949 C 345.824 301.331 344.812 292.217 344.548 283.773 C 344.297 275.732 344.49 266.889 346.995 259.166 C 349.363 251.753 354.09 244.773 358.723 238.601 C 363.73 231.931 369.634 225.312 376.926 221.091 L 410.477 221.091 C 410.477 221.089 416.532 220.497 411.894 224.466 Z M 412.191 213.856 L 378.185 213.856 C 370.765 210.073 364.752 203.553 359.678 197.083 C 354.679 190.71 349.806 183.552 347.04 175.886 C 345.81 172.475 345.281 168.791 344.869 165.205 C 344.359 160.763 344.158 156.281 344.227 151.81 C 344.357 143.313 345.249 134.271 348.837 126.461 L 376.431 106.398 C 376.431 106.398 380.43 104.088 378.939 109.08 C 374.698 123.27 373.774 138.643 375.991 153.235 C 378.422 169.236 386.487 183.412 397.035 195.494 C 401.837 200.984 407.315 206.158 413.293 210.721 C 416.646 213.071 412.191 213.856 412.191 213.856 Z" style="fill: rgb(19, 9, 37);" />
</svg>